<svg width="109" height="24" viewBox="0 0 109 24" fill="none" xmlns="http://www.w3.org/2000/svg">
<g clip-path="url(#clip0_2024_33340)">
<path d="M40.6097 13.6556L43.1056 14.4543C42.7229 15.8586 42.0852 16.9031 41.1923 17.5877C40.3053 18.2664 39.1776 18.6058 37.8094 18.6058C36.1164 18.6058 34.7249 18.0236 33.635 16.8592C32.545 15.6889 32 14.0915 32 12.067C32 9.92542 32.5479 8.26366 33.6437 7.0817C34.7394 5.89389 36.1802 5.29999 37.9659 5.29999C39.5255 5.29999 40.7923 5.76516 41.7663 6.69552C42.3461 7.24554 42.7809 8.03546 43.0708 9.06529L40.5227 9.67967C40.372 9.01262 40.056 8.48601 39.5748 8.09982C39.0994 7.71364 38.5196 7.52055 37.8354 7.52055C36.8904 7.52055 36.1222 7.86285 35.5308 8.54745C34.9453 9.23205 34.6525 10.3409 34.6525 11.8739C34.6525 13.5006 34.9424 14.6591 35.5221 15.3496C36.1019 16.04 36.8556 16.3852 37.7833 16.3852C38.4674 16.3852 39.0559 16.1658 39.5487 15.727C40.0415 15.2881 40.3952 14.5977 40.6097 13.6556Z" fill="black"/>
<path d="M44.8014 12.0319C44.8014 10.7212 44.9957 9.62116 45.3841 8.73176C45.674 8.07642 46.0683 7.48837 46.5669 6.9676C47.0713 6.44684 47.6221 6.06065 48.2192 5.80905C49.0135 5.46967 49.9296 5.29999 50.9674 5.29999C52.8458 5.29999 54.3475 5.88804 55.4722 7.06415C56.6028 8.24026 57.1681 9.87569 57.1681 11.9704C57.1681 14.0476 56.6086 15.6743 55.4896 16.8504C54.3706 18.0207 52.8748 18.6058 51.0021 18.6058C49.1063 18.6058 47.5989 18.0236 46.4799 16.8592C45.3609 15.6889 44.8014 14.0798 44.8014 12.0319ZM47.4539 11.9441C47.4539 13.4011 47.7873 14.507 48.454 15.2618C49.1208 16.0108 49.9672 16.3852 50.9935 16.3852C52.0197 16.3852 52.8603 16.0137 53.5155 15.2706C54.1764 14.5216 54.5069 13.4011 54.5069 11.909C54.5069 10.4345 54.1851 9.33444 53.5416 8.60889C52.9038 7.88333 52.0544 7.52055 50.9935 7.52055C49.9325 7.52055 49.0773 7.88918 48.4279 8.62644C47.7786 9.35785 47.4539 10.4637 47.4539 11.9441Z" fill="black"/>
<path d="M58.5334 14.1998L61.0381 13.954C61.1888 14.8025 61.4932 15.4256 61.9512 15.8235C62.415 16.2214 63.0383 16.4203 63.821 16.4203C64.6501 16.4203 65.2733 16.2448 65.6908 15.8937C66.114 15.5368 66.3256 15.1214 66.3256 14.6474C66.3256 14.3431 66.2358 14.0857 66.056 13.875C65.8821 13.6585 65.5748 13.4713 65.1342 13.3133C64.8327 13.208 64.1457 13.0207 63.0731 12.7516C61.6932 12.4064 60.725 11.9821 60.1684 11.4789C59.3857 10.7709 58.9944 9.90787 58.9944 8.88975C58.9944 8.2344 59.177 7.62295 59.5422 7.05537C59.9133 6.48195 60.4438 6.04603 61.1337 5.74761C61.8295 5.4492 62.6672 5.29999 63.6471 5.29999C65.2472 5.29999 66.4503 5.65399 67.2562 6.36199C68.0678 7.07 68.494 8.01498 68.5346 9.19694L65.9604 9.31104C65.8502 8.64984 65.6125 8.17589 65.2472 7.88918C64.8878 7.59661 64.3457 7.45033 63.621 7.45033C62.8731 7.45033 62.2875 7.60539 61.8642 7.91551C61.5917 8.11445 61.4555 8.38069 61.4555 8.71421C61.4555 9.01848 61.5831 9.27886 61.8382 9.49535C62.1628 9.77036 62.9513 10.0571 64.2036 10.3555C65.456 10.6539 66.3807 10.964 66.9779 11.2858C67.5808 11.6018 68.0504 12.0377 68.3867 12.5936C68.7288 13.1436 68.8998 13.8253 68.8998 14.6386C68.8998 15.3759 68.6969 16.0663 68.2911 16.71C67.8852 17.3536 67.3112 17.8334 66.5691 18.1494C65.827 18.4595 64.9023 18.6146 63.7949 18.6146C62.1831 18.6146 60.9453 18.2401 60.0814 17.4911C59.2176 16.7363 58.7016 15.6392 58.5334 14.1998Z" fill="black"/>
<path d="M71.074 18.3864V5.51941H73.6482V10.5837H78.6922V5.51941H81.2664V18.3864H78.6922V12.7604H73.6482V18.3864H71.074Z" fill="black"/>
<path d="M83.858 18.3864V5.51941H86.4322V18.3864H83.858Z" fill="black"/>
<path d="M88.9108 18.3864V5.51941H97.6509V7.69609H91.485V10.7417H96.8073V12.9184H91.485V18.3864H88.9108Z" fill="black"/>
<path d="M102.651 18.3864V7.69609H98.8684V5.51941H109V7.69609H105.226V18.3864H102.651Z" fill="black"/>
<circle cx="12" cy="12" r="12" fill="#46B964"/>
<path fill-rule="evenodd" clip-rule="evenodd" d="M8.38802 11.4779L6.77163 13.0943C5.60866 14.2572 5.60866 16.1428 6.77163 17.3057C7.93459 18.4687 9.82013 18.4687 10.9831 17.3057L12.5995 15.6893C13.2251 15.8563 13.8726 15.9198 14.5148 15.8798L12.036 18.3586C10.2915 20.1031 7.46321 20.1031 5.71876 18.3586C3.97432 16.6142 3.97432 13.7859 5.71876 12.0414L8.19747 9.56271C8.15744 10.2049 8.22096 10.8523 8.38802 11.4779ZM9.68173 10.1842L9.68194 10.184C9.64943 9.59699 9.7322 9.00481 9.93022 8.44426L9.93022 8.44363C9.73201 9.00444 9.64918 9.59691 9.68173 10.1842ZM13.981 14.3995C13.9518 14.3985 13.9225 14.3972 13.8933 14.3955L13.8933 14.3955C13.9225 14.3972 13.9518 14.3985 13.981 14.3995Z" fill="white"/>
<path fill-rule="evenodd" clip-rule="evenodd" d="M13.0892 6.77689L12.0363 7.82976C10.8734 8.99272 10.8734 10.8783 12.0363 12.0412C13.1993 13.2042 15.0848 13.2042 16.2478 12.0412L17.3007 10.9884C18.4636 9.82539 18.4636 7.93986 17.3007 6.77689C16.1377 5.61393 14.2522 5.61393 13.0892 6.77689ZM10.9835 6.77689C9.23902 8.52134 9.23902 11.3496 10.9835 13.0941C12.7279 14.8385 15.5562 14.8385 17.3007 13.0941L18.3535 12.0412C20.098 10.2968 20.098 7.46847 18.3535 5.72403C16.6091 3.97958 13.7808 3.97958 12.0363 5.72403L10.9835 6.77689Z" fill="white"/>
</g>
<defs>
<clipPath id="clip0_2024_33340">
<rect width="109" height="24" fill="white"/>
</clipPath>
</defs>
</svg>
